<svg xmlns="http://www.w3.org/2000/svg" height="512" viewBox="0 0 64 64" width="512"><g id="flat"><path d="m22 34-12-2-7 7v4c0 1.657 4.438 2.562 6 1 1.4-1.405 1.787-2.773 1-4l2-2 10.706 5.353 2.652-9.946z" fill="#aabece"></path><path d="m42.65 31.127a11.976 11.976 0 0 0 -1.65-.127h-15l-4 15 5 5v6h-1.916a2.048 2.048 0 0 0 -1.984 1.348 2.007 2.007 0 0 0 1.9 2.652h7l2-10-1-4 5.988 2a4.1 4.1 0 0 0 -.988 4l2 4h-2.916a2.048 2.048 0 0 0 -1.984 1.348 2.007 2.007 0 0 0 1.9 2.652h16l-2-4 2-2v-12a11.918 11.918 0 0 0 -1.679-6.1z" fill="#7d8d9c"></path><path d="m46.762 32.474-13.762 14.526 5 1.67 13.321-11.77a12.036 12.036 0 0 0 -4.559-4.426z" fill="#e0dfc3"></path><path d="m42.65 31.127-11.65 10.873 2 5 13.762-14.526a11.9 11.9 0 0 0 -4.112-1.347z" fill="#f4f4e6"></path><path d="m45 14-6-9h-16l-6 9v6l-1 6a2.843 2.843 0 0 0 2 3l4 2h18l4-2a2.843 2.843 0 0 0 2-3l-1-6z" fill="#aabece"></path><path d="m37.005 19-2.005-2h-8l-2.019 2a14.346 14.346 0 0 0 -2.954 5.04c-.255 1.55 1.394 2.96 2.966 2.96 4 0 6-1 6-4 0 3 2 4 6 4 1.571 0 3.255-1.449 3-3a14.718 14.718 0 0 0 -2.988-5z" fill="#ffd782"></path><path d="m53 51v4h5c2.313 0 3.976-1.9 3-4-1.945-4.18-8 0-8 0z" fill="#394d5c"></path><path d="m38.654 56.553-1.554-3.106-.063-.159a5.119 5.119 0 0 1 2.353-5.871 4.741 4.741 0 0 1 3.059-.49 3.384 3.384 0 0 1 .992.178l3.106 1.553a1 1 0 0 1 .453 1.342 1 1 0 0 1 -1.342.447l-3.037-1.518a2.78 2.78 0 0 0 -2.825.673 3.121 3.121 0 0 0 -.857 3.04l1.508 3.016a1 1 0 0 1 -.447 1.342 1 1 0 0 1 -1.346-.447z" fill="#394d5c"></path><path d="m33 21h-4l-2-4h8z" fill="#394d5c"></path><path d="m29 5h4v12h-4z" fill="#cfdfe8"></path><g fill="#394d5c"><path d="m39 5 4-1.919s3.984-.993 4.984 3.971a18.174 18.174 0 0 0 1.9 5.449.988.988 0 0 1 -.784 1.499h-4.1z"></path><path d="m23 5-3.962-1.919s-4-.993-5 3.971a18.169 18.169 0 0 1 -1.9 5.449 1 1 0 0 0 .862 1.499h4z"></path><path d="m21 13-.008-2a5.455 5.455 0 0 0 4.179-2.555l1.664 1.11a7.447 7.447 0 0 1 -5.835 3.445z"></path><path d="m23 13h2v2h-2z"></path><path d="m40 13a7.442 7.442 0 0 1 -5.832-3.445l1.664-1.11a5.44 5.44 0 0 0 4.168 2.555z"></path><path d="m36 13h2v2h-2z"></path></g><path d="m5.2 36.8 4.8 3.2 2-2-2-6z" fill="#e0dfc3"></path><path d="m16 33-6-1 2 6 4 2z" fill="#f4f4e6"></path><path d="m16 33v7l6-6z" fill="#e0dfc3"></path></g></svg>