<?xml version="1.0" encoding="utf-8"?>
<!-- Generator: Adobe Illustrator 28.0.0, SVG Export Plug-In . SVG Version: 6.00 Build 0)  -->
<svg version="1.1" id="Layer_1" xmlns="http://www.w3.org/2000/svg" xmlns:xlink="http://www.w3.org/1999/xlink" x="0px" y="0px"
	 viewBox="0 0 100 100" style="enable-background:new 0 0 100 100;" xml:space="preserve">
<style type="text/css">
	.st0{fill:#FFFFFF;}
</style>
<g>
	<path class="st0" d="M87.5,56.5l5-1.2l-0.8-3.2l-4,0.9c0-0.1,0-0.1,0-0.2c0-6.3-1.7-12-4.8-16.9c2.6-8.9-2.2-20.6-2.2-20.6
		s-8.7,3.7-13.7,8.2c-5.1-1.5-10.8-2-16.8-2c-6.1,0-11.8,0.4-16.9,1.9c-5-4.5-13.6-8.2-13.6-8.2S14.9,27.1,17.4,36
		c-3,4.9-4.8,10.6-4.8,16.9c0,0.1,0,0.1,0,0.2l-4-0.9l-0.8,3.2l5,1.2c0.4,3.9,1.6,7.4,3.3,10.5L10,69.5l1.2,3.1l6.8-2.7
		c6.6,8.8,18.5,13.5,32.1,13.5c13.6,0,25.6-4.7,32.1-13.5l6.8,2.7l1.2-3.1L84.1,67C85.9,63.9,87.1,60.4,87.5,56.5z"/>
</g>
<g>
	<path class="st0" d="M94.3,57.8l5.9-1.4l-0.9-3.8l-4.7,1.1c0-0.1,0-0.1,0-0.2c0-7.4-2.1-14.2-5.7-20c3-10.5-2.6-24.3-2.6-24.3
		S75.9,13.6,70,19c-6-1.8-12.7-2.4-19.9-2.4c-7.2,0-14,0.5-20,2.3c-5.9-5.3-16.1-9.7-16.1-9.7S8.4,23,11.5,33.5
		c-3.6,5.8-5.7,12.6-5.7,20c0,0.1,0,0.1,0,0.2l-4.7-1.1l-0.9,3.8L6,57.8c0.5,4.6,1.9,8.7,4,12.4l-7.3,2.9l1.5,3.7l8-3.2
		C20,84,34.1,89.5,50.2,89.5c16.1,0,30.2-5.5,38-15.9l8,3.2l1.5-3.7l-7.3-2.9C92.4,66.6,93.8,62.4,94.3,57.8z"/>
</g>
</svg>
