<svg xmlns="http://www.w3.org/2000/svg" id="Capa_1" height="512" viewBox="0 0 512 512" width="512"><g><path d="m.015 141.388c-1.091-73.235 57.245-134.867 130.487-135.311 34.123-.207 65.242 12.606 88.699 33.758 14.152 12.761 35.879 12.761 50.03 0 23.457-21.152 54.576-33.966 88.698-33.758 73.242.444 131.578 62.076 130.487 135.311-1.566 105.13-64.936 133.024-64.936 222.042 0 88.416-40.853 142.495-80.829 142.495-42.27 0-66.67-49.388-83.603-91.829-5.335-13.371-24.33-13.371-29.665 0-16.933 42.441-41.333 91.829-83.603 91.829-39.976 0-80.829-54.08-80.829-142.495 0-89.018-63.37-116.913-64.936-222.042z" fill="#fcf2d0"></path><path d="m92.836 11.93c-54.565 17.054-93.717 69.342-92.821 129.458 1.566 105.129 64.936 133.024 64.936 222.042 0 88.416 40.853 142.495 80.829 142.495 39.072 0 62.876-42.198 79.627-82.103-104.386-37.317-173.392-293.968-132.571-411.892z" fill="#fae0bd"></path><g><g><path d="m190.404 178.031c.007 13.843-14.079 25.072-31.463 25.081-17.383.009-31.481-11.206-31.488-25.049s14.079-25.073 31.463-25.081c17.383-.01 31.481 11.206 31.488 25.049z" fill="#eda1ab"></path><path d="m298.06 177.977c.007 13.843 14.105 25.058 31.488 25.049s31.47-11.238 31.463-25.081-14.105-25.059-31.488-25.05c-17.384.009-31.47 11.238-31.463 25.082z" fill="#eda1ab"></path><path d="m275.079 166.657c-.01-19.068-13.824-20.852-30.864-20.844s-30.852 1.807-30.843 20.875c.009 19.067 13.831 34.518 30.871 34.509s30.846-15.473 30.836-34.54z" fill="#4e5660"></path></g><g fill="#4e5660"><path d="m311.913 156.794c-.005 0-.01 0-.015 0-4.142-.008-7.494-3.372-7.486-7.514l.023-12.362c.008-4.137 3.364-7.486 7.499-7.486h.015c4.142.008 7.494 3.372 7.486 7.514l-.023 12.362c-.007 4.137-3.364 7.486-7.499 7.486z"></path><path d="m196.971 155.662c-.006 0-.011 0-.017 0-4.142-.009-7.493-3.374-7.483-7.517.008-3.853-3.119-6.994-6.972-7.002-.005 0-.01 0-.016 0-3.846 0-6.979 3.124-6.987 6.972-.009 4.136-3.366 7.483-7.5 7.483-.006 0-.011 0-.017 0-4.142-.009-7.493-3.374-7.483-7.517.027-12.107 9.886-21.939 21.986-21.939h.049c12.124.027 21.965 9.912 21.938 22.036-.008 4.137-3.364 7.484-7.498 7.484z"></path></g></g><ellipse cx="400.172" cy="327.309" fill="#eda1ab" rx="111.828" ry="111.828" transform="matrix(.707 -.707 .707 .707 -114.235 378.831)"></ellipse><path d="m422.257 299.365v-32.455c0-3.235-2.623-5.858-5.858-5.858h-32.455c-3.235 0-5.858 2.623-5.858 5.858v32.455c0 3.235-2.623 5.858-5.858 5.858h-32.455c-3.235 0-5.858 2.623-5.858 5.858v32.455c0 3.235 2.623 5.858 5.858 5.858h32.455c3.235 0 5.858 2.623 5.858 5.858v32.455c0 3.235 2.623 5.858 5.858 5.858h32.455c3.235 0 5.858-2.623 5.858-5.858v-32.455c0-3.235 2.623-5.858 5.858-5.858h32.455c3.235 0 5.858-2.623 5.858-5.858v-32.455c0-3.235-2.623-5.858-5.858-5.858h-32.455c-3.235 0-5.858-2.623-5.858-5.858z" fill="#fff"></path></g></svg>