<svg xmlns="http://www.w3.org/2000/svg" xmlns:xlink="http://www.w3.org/1999/xlink" id="Layer_1" x="0px" y="0px" viewBox="0 0 256 256" style="enable-background:new 0 0 256 256;" xml:space="preserve" width="512" height="512">
<style type="text/css">
	.st0{fill:#6DCC6D;}
	.st1{fill:#F9D97D;}
	.st2{fill:#FFCD29;}
	.st3{fill:#965D41;}
	.st4{fill:#231F20;}
	.st5{fill:#60BAE2;}
	.st6{fill:#F45D64;}
</style>
<g id="Layer_18">
	<path class="st0" d="M199.8,24.3L199.8,24.3c-13.8,0-25.1,11.3-25.1,25.1l0,0c0,13.8,11.3,25.1,25.1,25.1l0,0   c13.8,0,25.1-11.3,25.1-25.1l0,0C224.8,35.5,213.6,24.3,199.8,24.3z"></path>
	<path class="st1" d="M224.3,54.6c-1.8,8.3-7.6,15.1-15.5,18.2c30.5,44.6,19,105.5-25.7,136s-105.5,19-136-25.7s-19-105.5,25.7-136   c30.6-20.9,70.4-22.7,102.8-4.7c2.4-8.1,8.6-14.5,16.7-17.1C135.6-10.3,60.7,6.8,25,63.6S6.5,195.3,63.2,230.9   s131.7,18.6,167.3-38.2C257.5,149.9,255,94.8,224.3,54.6z"></path>
	<path class="st2" d="M218.4,66.1c-2.6,2.9-5.9,5.2-9.5,6.6c30.5,44.7,19,105.6-25.7,136s-105.6,19-136-25.7s-19-105.6,25.7-136   c30.6-20.9,70.4-22.7,102.8-4.7c1.1-3.8,3.1-7.2,5.7-10.1C128.5,2.7,61.6,21.7,32,74.6S21.4,194.3,74.3,223.9   s119.8,10.7,149.4-42.3C244,145.3,242,100.5,218.4,66.1z"></path>
	<path class="st3" d="M144,188h-32c-21.9,0-35.6-23.9-24.5-42.9l5.2-8.9c7.3-12.6,20.7-20.3,35.3-20.3l0,0c14.5,0,28,7.7,35.3,20.3   l5.2,8.9C179.6,164.1,165.9,188,144,188z"></path>
	
		<ellipse transform="matrix(0.9634 -0.2681 0.2681 0.9634 -19.5201 32.0525)" class="st3" cx="107.6" cy="87.5" rx="13.2" ry="19.9"></ellipse>
	
		<ellipse transform="matrix(0.2682 -0.9634 0.9634 0.2682 24.2522 206.9367)" class="st3" cx="148.3" cy="87.5" rx="19.9" ry="13.2"></ellipse>
	
		<ellipse transform="matrix(0.6794 -0.7338 0.7338 0.6794 -24.5733 167.7017)" class="st3" cx="179.6" cy="112" rx="16.4" ry="10.9"></ellipse>
	<ellipse transform="matrix(0.7338 -0.6794 0.6794 0.7338 -55.732 81.7)" class="st3" cx="76.4" cy="112" rx="10.9" ry="16.4"></ellipse>
	<path class="st4" d="M196.5,59.1c-0.7,0-1.3-0.3-1.8-0.7l-8.1-8.1c-1-1-1-2.6,0-3.5c1-1,2.5-1,3.5,0l6.3,6.3l12.8-12.8   c1-1,2.6-1,3.5,0c1,1,1,2.5,0,3.5l-14.5,14.5C197.8,58.9,197.2,59.1,196.5,59.1z"></path>
	<path class="st4" d="M128,251.7c-68.3,0-123.7-55.3-123.7-123.6C4.2,59.8,59.6,4.4,127.9,4.3c23.3,0,46.1,6.6,65.9,18.9   c1.2,0.7,1.5,2.3,0.8,3.4c-0.3,0.5-0.8,0.9-1.4,1.1c-11.9,3.7-18.6,16.3-15,28.2s16.3,18.6,28.2,15c7.8-2.4,13.8-8.9,15.5-16.9   c0.3-1.4,1.6-2.2,3-1.9c0.6,0.1,1.1,0.5,1.5,0.9c16.5,21.5,25.4,47.8,25.4,74.9C251.6,196.3,196.3,251.6,128,251.7z M128,9.3   C62.5,9.3,9.3,62.5,9.3,128S62.5,246.7,128,246.7S246.7,193.5,246.7,128c0.1-24.3-7.4-48.1-21.5-68c-5.9,14.1-22,20.7-36.1,14.9   s-20.7-22-14.9-36.1c2.5-5.9,6.9-10.8,12.6-13.8C169,14.7,148.7,9.3,128,9.3z"></path>
	<path class="st4" d="M199.8,77c-15.2,0-27.6-12.4-27.6-27.6c0-15.2,12.4-27.6,27.6-27.6c15.2,0,27.6,12.4,27.6,27.6c0,0,0,0,0,0   C227.3,64.6,215,77,199.8,77z M199.8,26.8c-12.5,0-22.6,10.1-22.6,22.6c0,12.5,10.1,22.6,22.6,22.6s22.6-10.1,22.6-22.6   c0,0,0,0,0,0C222.4,36.9,212.2,26.8,199.8,26.8L199.8,26.8z"></path>
	<path class="st4" d="M128,240.1c-61.9,0-112.1-50.1-112.2-112c0-61.9,50.1-112.1,112-112.2c19.2,0,38,4.9,54.7,14.2   c1.2,0.7,1.6,2.2,1,3.4c-0.1,0.2-0.2,0.3-0.4,0.5c-2.4,2.6-4.2,5.7-5.2,9.1c-0.4,1.3-1.8,2.1-3.1,1.7c-0.2-0.1-0.4-0.1-0.5-0.2   c-46.1-25.7-104.2-9.1-129.8,37s-9.1,104.2,37,129.8s104.2,9.1,129.8-37c17.6-31.6,15.8-70.4-4.6-100.3c-0.8-1.1-0.5-2.7,0.7-3.5   c0.2-0.1,0.3-0.2,0.5-0.3c3.3-1.3,6.2-3.3,8.6-6c0.9-1,2.5-1.1,3.5-0.2c0.1,0.1,0.3,0.3,0.4,0.4c35,51,22,120.8-29.1,155.8   C172.7,233.3,150.6,240.1,128,240.1z M128,20.9C68.8,20.8,20.8,68.8,20.7,128s47.9,107.2,107.1,107.3S235,187.4,235.1,128.2   c0-20.6-5.9-40.8-17.1-58.2c-1.7,1.5-3.5,2.7-5.4,3.8c29.9,46.7,16.3,108.8-30.4,138.7S73.4,228.8,43.5,182.1S27.2,73.3,73.9,43.4   c30.2-19.4,68.5-21.1,100.4-4.6c0.9-2,2-4,3.3-5.8C162.2,25.1,145.3,20.9,128,20.9z"></path>
	<path class="st4" d="M144,190.5h-32c-17.1-0.1-31-14-30.9-31.1c0-5.5,1.5-10.8,4.3-15.6l5.2-8.9c12-20.7,38.5-27.7,59.1-15.7   c6.5,3.8,11.9,9.2,15.7,15.7l5.2,8.9c8.7,14.8,3.7,33.8-11.1,42.4C154.8,189,149.5,190.5,144,190.5L144,190.5z M128,118.3   c-13.6,0-26.2,7.3-33.1,19.1l-5.2,8.9c-4.8,8.1-4.8,18.1-0.1,26.2c4.6,8.1,13.1,13,22.4,13h32c9.3,0,17.8-4.9,22.4-13   c4.7-8.1,4.7-18.1-0.1-26.2l-5.2-8.9C154.2,125.6,141.6,118.4,128,118.3z"></path>
	<path class="st4" d="M110.6,109.5c-3.6-0.1-7.1-1.6-9.8-4.1c-4-3.7-6.9-8.5-8.3-13.7c-1.6-5.2-1.6-10.8,0-16.1   c1.7-5.1,4.9-8.6,9.2-9.8s8.8,0.1,12.9,3.6c4,3.7,6.9,8.5,8.3,13.7c3.4,12.1-0.6,23.5-9.1,25.8   C112.7,109.4,111.6,109.5,110.6,109.5z M104.7,70.5c-0.6,0-1.2,0.1-1.8,0.2c-2.6,0.7-4.6,3-5.7,6.5c-1.2,4.3-1.2,8.9,0.1,13.2   c1.1,4.3,3.4,8.3,6.7,11.3c2.8,2.4,5.7,3.3,8.3,2.6c5.6-1.6,8.2-10.6,5.7-19.7c-1.1-4.3-3.4-8.3-6.7-11.3   C109.5,71.6,107.2,70.6,104.7,70.5z"></path>
	<path class="st4" d="M145.4,109.5c-1.1,0-2.1-0.1-3.1-0.4c-8.5-2.4-12.5-13.7-9.1-25.8c1.4-5.3,4.2-10.1,8.3-13.7   c4.1-3.5,8.6-4.8,12.9-3.6s7.5,4.6,9.2,9.8c1.6,5.2,1.5,10.8,0,16.1c-1.4,5.3-4.2,10.1-8.3,13.7C152.6,108,149.1,109.4,145.4,109.5   z M151.3,70.5c-2.4,0.1-4.8,1.1-6.5,2.8c-3.3,3-5.6,7-6.7,11.3c-2.5,9.1,0.1,18.1,5.7,19.7c2.6,0.7,5.5-0.2,8.3-2.6   c3.3-3,5.6-7,6.7-11.3c1.3-4.3,1.3-8.9,0.1-13.2c-1.1-3.5-3.2-5.8-5.7-6.5C152.4,70.6,151.8,70.5,151.3,70.5z"></path>
	<path class="st4" d="M174.3,128.6c-2.8,0.1-5.4-0.9-7.5-2.8c-2.8-2.6-3.9-6.5-3.2-11c0.9-4.5,3-8.6,6.2-11.9l0,0   c7.2-7.8,17.1-9.8,22.6-4.8s4.2,15.2-3,22.9c-3,3.4-7,5.9-11.4,7.1C176.8,128.4,175.5,128.6,174.3,128.6z M184.9,100.4   c-3.5,0-7.9,2.2-11.4,5.9l0,0c-2.5,2.6-4.2,5.8-4.9,9.3c-0.5,2.8,0.1,5.1,1.6,6.5s3.8,1.8,6.6,1.1c3.5-1,6.6-2.9,8.9-5.6   c5.1-5.5,6.6-12.8,3.3-15.8C187.9,100.8,186.4,100.3,184.9,100.4L184.9,100.4z M171.6,104.6L171.6,104.6z"></path>
	<path class="st4" d="M81.7,128.6c-1.2,0-2.5-0.2-3.7-0.5c-4.4-1.2-8.4-3.6-11.4-7.1c-7.2-7.8-8.5-17.8-3-22.9s15.4-3,22.6,4.8l0,0   c7.2,7.8,8.5,17.8,3,22.9C87.1,127.6,84.5,128.6,81.7,128.6z M71.1,100.4c-1.5-0.1-3,0.4-4.1,1.4c-3.3,3.1-1.8,10.3,3.3,15.8   c2.4,2.7,5.5,4.6,8.9,5.6c2.8,0.7,5.1,0.3,6.6-1.1c3.3-3.1,1.8-10.3-3.3-15.8l0,0C79,102.5,74.6,100.4,71.1,100.4L71.1,100.4z"></path>
	<path class="st5" d="M38.7,234h-1.8v-1.8c0-1.4-1.1-2.5-2.5-2.5s-2.5,1.1-2.5,2.5v1.8H30c-1.4,0-2.5,1.1-2.5,2.5s1.1,2.5,2.5,2.5   h1.8v1.8c0,1.4,1.1,2.5,2.5,2.5s2.5-1.1,2.5-2.5V239h1.8c1.4,0,2.5-1.1,2.5-2.5S40.1,234,38.7,234L38.7,234z"></path>
	<path class="st0" d="M239.4,32.4c0-0.2-0.1-0.3-0.1-0.5c-0.1-0.1-0.1-0.3-0.2-0.4c-0.1-0.1-0.2-0.3-0.3-0.4c-1-0.9-2.5-0.9-3.5,0   c-0.1,0.1-0.2,0.2-0.3,0.4c-0.2,0.3-0.3,0.6-0.4,0.9c-0.1,0.3-0.1,0.7,0,1c0,0.2,0.1,0.3,0.1,0.5c0.1,0.2,0.1,0.3,0.2,0.4   c0.1,0.1,0.2,0.3,0.3,0.4c1,1,2.5,1,3.5,0c0,0,0,0,0,0c0.1-0.1,0.2-0.2,0.3-0.4c0.1-0.1,0.2-0.3,0.2-0.4c0.1-0.1,0.1-0.3,0.1-0.5   C239.5,33,239.5,32.7,239.4,32.4z"></path>
	<path class="st6" d="M60.7,253c0-0.2-0.1-0.3-0.1-0.5c-0.1-0.1-0.1-0.3-0.2-0.4c-0.1-0.1-0.2-0.3-0.3-0.4c-1-0.9-2.5-0.9-3.5,0   c-0.1,0.1-0.2,0.2-0.3,0.4c-0.2,0.3-0.3,0.6-0.4,0.9c-0.1,0.3-0.1,0.7,0,1c0,0.2,0.1,0.3,0.1,0.5c0.1,0.2,0.1,0.3,0.2,0.4   c0.1,0.1,0.2,0.3,0.3,0.4c1,1,2.5,1,3.5,0c0,0,0,0,0,0c0.1-0.1,0.2-0.2,0.3-0.4c0.1-0.1,0.2-0.3,0.2-0.4c0.1-0.1,0.1-0.3,0.1-0.5   C60.8,253.7,60.8,253.3,60.7,253z"></path>
	<path class="st2" d="M224.6,8.2c-4.1-0.8-7.2-4-8-8c0-0.1-0.1-0.2-0.2-0.2c-0.1,0-0.1,0.1-0.2,0.2c-0.8,4.1-4,7.2-8,8   c-0.1,0-0.2,0.1-0.2,0.2c0,0.1,0.1,0.1,0.2,0.2c4.1,0.8,7.2,4,8,8c0,0.1,0.1,0.2,0.2,0.2c0.1,0,0.1-0.1,0.2-0.2c0.8-4.1,4-7.2,8-8   c0.1,0,0.2-0.1,0.2-0.2C224.7,8.2,224.7,8.2,224.6,8.2z"></path>
</g>
</svg>